<svg xmlns="http://www.w3.org/2000/svg" xmlns:xlink="http://www.w3.org/1999/xlink" version="1.1" x="0px" y="0px" viewBox="0 0 512 640" enable-background="new 0 0 512 512" xml:space="preserve"><g><path d="M498.3,153.1l-253.5-45.1V16.2c0.2-9.6-10-16.5-18.5-13.4L11.7,73.6C5.9,75.5,2,80.9,2,87v408.9c0,7.8,6.3,14.1,14.1,14.1   h479.7c7.8,0,14.1-6.3,14.1-14.1V167C510,160.2,505.1,154.3,498.3,153.1z M150.4,481.8h-54V353.2h54V481.8z M216.6,481.8h-38V339.1   c0-7.8-6.3-14.1-14.1-14.1H82.3c-7.8,0-14.1,6.3-14.1,14.1v142.7h-38V97.2l186.4-61.5V481.8z M481.8,357.8h-50.7   c-7.8,0-14.1,6.3-14.1,14.1c0,7.8,6.3,14.1,14.1,14.1h50.7v28.2h-22.4c-7.8,0-14.1,6.3-14.1,14.1c0,7.8,6.3,14.1,14.1,14.1h22.4   v39.3H244.8v-345l236.9,42.1V357.8z"/><path d="M278.9,325.6h165.5c7.8,0,14.1-6.3,14.1-14.1v-72.1c0-7.8-6.3-14.1-14.1-14.1H278.9c-7.8,0-14.1,6.3-14.1,14.1v72.1   C264.8,319.2,271.2,325.6,278.9,325.6z M293.1,253.5h137.3v43.9H293.1V253.5z"/><path d="M92.7,156.7h16.6v72.7c0,7.8,6.3,14.1,14.1,14.1s14.1-6.3,14.1-14.1v-72.7h16.6c7.8,0,14.1-6.3,14.1-14.1   c0-7.8-6.3-14.1-14.1-14.1h-16.6v-16.3c0-7.8-6.3-14.1-14.1-14.1s-14.1,6.3-14.1,14.1v16.3H92.7c-7.8,0-14.1,6.3-14.1,14.1   C78.6,150.4,85,156.7,92.7,156.7z"/></g><text x="0" y="527" fill="#000000" font-size="5px" font-weight="bold" font-family="'Helvetica Neue', Helvetica, Arial-Unicode, Arial, Sans-serif">Created by Icon Fair</text><text x="0" y="532" fill="#000000" font-size="5px" font-weight="bold" font-family="'Helvetica Neue', Helvetica, Arial-Unicode, Arial, Sans-serif">from the Noun Project</text></svg>