<svg xmlns="http://www.w3.org/2000/svg" xmlns:xlink="http://www.w3.org/1999/xlink" version="1.1" x="0px" y="0px" viewBox="0 0 66 82.5" enable-background="new 0 0 66 66" xml:space="preserve"><g><path d="M30.9,3.2c-0.3-0.3-0.8-0.4-1.2-0.2c-0.4,0.2-0.6,0.7-0.5,1.1c2.2,10.1-8.6,19-6.9,26.8c-4.5-1.9-4.6-10.5-4.6-10.6   c0-0.5-0.3-0.9-0.8-1c-0.4-0.1-0.9,0.1-1.1,0.5c-5.1,10.5-6,18.6-2.9,24.2c3.3,5.8,9.7,6.4,10,6.4c0.6,0,1-0.4,1.1-0.9   c0.1-0.5-0.4-1-0.9-1.1c-0.1,0-5.7-0.6-8.4-5.4c-2.5-4.4-2-10.7,1.5-18.9c0.7,3.7,2.5,8.9,7.7,9.2c0.4,0,0.7-0.2,0.9-0.5   c0.2-0.3,0.2-0.7,0.1-1c-3.2-6.3,6.7-14.8,6.7-25c4.9,6,6.6,12.4,5.3,19.6c-0.1,0.5,0.2,0.9,0.6,1.1c0.4,0.2,0.9,0,1.2-0.4   c2.6-3.8,3.8-8.2,3.6-13c5.4,6.4,2.5,14.6,0.7,19.7c-0.9,2.4-1.4,3.8-0.8,4.7c0.2,0.4,0.5,0.6,0.9,0.7c5.1,1.2,7.8-4.5,9.2-8.5   c1,3,1,5.8,0,8.4c-1.4,3.8-4.8,7-10,9.3c-0.5,0.2-0.7,0.8-0.5,1.3c0.2,0.4,0.5,0.6,0.9,0.6c0.1,0,0.3,0,0.4-0.1   c5.6-2.6,9.4-6.2,11-10.5c1.4-3.8,1-8.1-1.2-12.6c-0.2-0.4-0.6-0.6-1-0.6c-0.4,0-0.8,0.3-0.9,0.7c-1.9,7-4.3,10.3-7.2,9.9   c0.1-0.6,0.5-1.9,0.9-2.9c2-5.7,5.8-16.3-3.2-23.7c-0.3-0.3-0.8-0.3-1.1-0.1c-0.4,0.2-0.6,0.6-0.5,1c0.5,3.6,0.2,6.9-0.7,9.8   C39.1,14.9,36.4,8.8,30.9,3.2z"/><path d="M17,61.6c1.5,1.9,4.3,2.1,6.2,0.6l8.9-7.4l8.9,7.4c1.8,1.5,4.6,1.3,6.2-0.6c1.5-1.9,1.3-4.6-0.6-6.2L39,49   c0.9-0.8,1.6-1.7,2-2.7c0.5-1.5,0.4-3.2-0.4-4.9c-0.2-0.4-0.6-0.6-1-0.6c-1.3,0.1-0.8,2.1-2.1,3.4l-0.2-3.3   c0.5-3.2-1.7-5.3-3.6-7.2c-0.3-0.3-0.7-0.6-1-1c-0.3-0.3-0.8-0.4-1.2-0.2c-0.4,0.2-0.6,0.7-0.5,1.1c0.6,2.6-1.8,5.1-2.4,7.6   c-0.4-0.9-0.4-2.1-0.4-2.1c0-0.5-0.3-0.9-0.8-1c-0.5-0.1-0.9,0.1-1.1,0.5c-1.5,3.1-2.7,7.1-0.5,9.8l-8.2,6.9   C15.7,56.9,15.5,59.7,17,61.6z M18.9,56.9l8.5-7.1c1,0.5,1.9,0.6,2,0.6c0.6,0,1-0.4,1.1-0.9s-0.3-1-0.9-1.1c-2.1-0.2-3.6-2-2.5-5.9   c0.9,1.6,2.9,2.5,3.6,1.4c0.2-0.3,0.2-0.7,0.1-1c-0.8-1.5,1.7-4.2,2.3-7.1c3.6,3.6,1.8,3.4,2.6,9.8c0,0.5,0.4,0.8,0.8,0.9   c1.3,0.2,2.2-0.4,2.8-1.2c0,0.1-0.1,0.2-0.1,0.3c-0.4,1.2-1.5,2.2-3.2,2.9c-0.5,0.2-0.7,0.8-0.5,1.3c0.2,0.4,0.5,0.6,0.9,0.6   c0.1,0,0.3,0,0.4-0.1c0.2-0.1,0.3-0.2,0.5-0.2l8.2,6.8c1,0.9,1.2,2.3,0.3,3.4c-0.8,1-2.3,1.2-3.4,0.3c-4.6-3.8-9.4-7.8-9.7-8   c-0.3-0.2-0.7-0.2-1.1,0c0,0-0.1,0-0.1,0.1l-9.6,8c-1,0.9-2.5,0.7-3.3-0.3C17.7,59.3,17.9,57.8,18.9,56.9z"/></g><text x="0" y="81" fill="#000000" font-size="5px" font-weight="bold" font-family="'Helvetica Neue', Helvetica, Arial-Unicode, Arial, Sans-serif">Created by ProSymbols</text><text x="0" y="86" fill="#000000" font-size="5px" font-weight="bold" font-family="'Helvetica Neue', Helvetica, Arial-Unicode, Arial, Sans-serif">from the Noun Project</text></svg>