<svg xmlns="http://www.w3.org/2000/svg" xmlns:xlink="http://www.w3.org/1999/xlink" version="1.1" x="0px" y="0px" viewBox="0 0 100 125" enable-background="new 0 0 100 100" xml:space="preserve"><path d="M89.392,62.474h-6.309V49.987c0-0.379-0.151-0.743-0.42-1.012L68.772,35.085c-0.559-0.559-1.465-0.559-2.023,0l-7.868,7.869  l-7.869-7.869c-0.268-0.267-0.632-0.42-1.012-0.42c-0.379,0-0.743,0.153-1.012,0.42l-7.868,7.869l-7.868-7.869  c-0.56-0.559-1.465-0.559-2.024,0L17.337,48.976c-0.269,0.269-0.419,0.633-0.419,1.012v12.486h-6.31c-0.79,0-1.43,0.641-1.43,1.43  c0,0.791,0.64,1.432,1.43,1.432h7.74H46.13h7.739h27.782h7.74c0.791,0,1.43-0.641,1.43-1.432  C90.821,63.114,90.183,62.474,89.392,62.474z M50,38.12l6.856,6.858l-3.998,3.997c-0.269,0.269-0.42,0.633-0.42,1.012v12.486H47.56  V49.987c0-0.379-0.148-0.743-0.417-1.012l-3.999-3.997L50,38.12z M19.779,50.58l12.46-12.46L44.7,50.58v11.894H19.779V50.58z   M55.3,50.58l4.588-4.585c0-0.002,0.003-0.004,0.005-0.005c0.002-0.002,0.003-0.006,0.005-0.007l7.863-7.863l12.46,12.46v11.894  H55.3V50.58z"/><text x="0" y="115" fill="#000000" font-size="5px" font-weight="bold" font-family="'Helvetica Neue', Helvetica, Arial-Unicode, Arial, Sans-serif">Created by Nathan Driskell</text><text x="0" y="120" fill="#000000" font-size="5px" font-weight="bold" font-family="'Helvetica Neue', Helvetica, Arial-Unicode, Arial, Sans-serif">from the Noun Project</text></svg>