<svg xmlns="http://www.w3.org/2000/svg" viewBox="0 0 32 40" x="0px" y="0px"><title>Office</title><g><path d="M29.57,29.14H28.3V11.05a.43.43,0,0,0-.43-.43H25.54V9.19a.43.43,0,0,0-.42-.43H17.25V5h.22a.43.43,0,0,0,.43-.43.43.43,0,0,0-.43-.42h-.22V2.43A.42.42,0,0,0,16.83,2H4.12a.42.42,0,0,0-.42.43V4.12H3.47a.43.43,0,0,0-.42.42A.42.42,0,0,0,3.47,5H3.7V29.14H2.43a.43.43,0,0,0,0,.86H29.57a.43.43,0,0,0,0-.86ZM24.69,9.62v1H17.25v-1ZM4.55,2.86H16.4V4.12H4.55ZM4.55,5H16.4V29.14H4.55Zm12.7,24.17V11.47h10.2V29.14Z"/><path d="M7.3,6.31a.43.43,0,0,0-.43.42V26.17a.43.43,0,0,0,.43.43.42.42,0,0,0,.42-.43V6.73A.42.42,0,0,0,7.3,6.31Z"/><path d="M10.47,6.31a.42.42,0,0,0-.42.42V26.17a.43.43,0,1,0,.85,0V6.73A.42.42,0,0,0,10.47,6.31Z"/><path d="M13.65,6.31a.42.42,0,0,0-.42.42V26.17a.42.42,0,0,0,.42.43.42.42,0,0,0,.42-.43V6.73A.42.42,0,0,0,13.65,6.31Z"/><path d="M19.29,13.09a.44.44,0,0,0-.12.3.43.43,0,0,0,.12.31.44.44,0,0,0,.6,0,.43.43,0,0,0,.12-.31.44.44,0,0,0-.12-.3A.46.46,0,0,0,19.29,13.09Z"/><path d="M19.59,22.08a.42.42,0,0,0-.42.42.42.42,0,0,0,.84,0A.42.42,0,0,0,19.59,22.08Z"/><ellipse cx="19.59" cy="20.23" rx="0.42" ry="0.43"/><path d="M19.59,15.26a.42.42,0,1,0,.42.41A.42.42,0,0,0,19.59,15.26Z"/><ellipse cx="19.59" cy="17.95" rx="0.42" ry="0.43"/><path d="M19.59,24.36a.42.42,0,1,0,.42.43A.42.42,0,0,0,19.59,24.36Z"/><path d="M19.29,26.75a.44.44,0,0,0-.12.3.43.43,0,0,0,.12.31.43.43,0,0,0,.6,0,.43.43,0,0,0,.12-.31.44.44,0,0,0-.12-.3A.46.46,0,0,0,19.29,26.75Z"/><path d="M22.35,13.82a.47.47,0,0,0,.3-.12.43.43,0,0,0,.12-.31.42.42,0,0,0-.71-.3.41.41,0,0,0-.13.3.4.4,0,0,0,.13.31A.43.43,0,0,0,22.35,13.82Z"/><circle cx="22.35" cy="17.95" r="0.43"/><path d="M22.35,15.26a.42.42,0,1,0,.43.41A.43.43,0,0,0,22.35,15.26Z"/><path d="M22.35,22.08a.43.43,0,0,0-.43.42.43.43,0,0,0,.86,0A.43.43,0,0,0,22.35,22.08Z"/><circle cx="22.35" cy="20.23" r="0.43"/><path d="M22.35,24.36a.42.42,0,1,0,.43.43A.43.43,0,0,0,22.35,24.36Z"/><path d="M22.06,26.75a.41.41,0,0,0-.13.3.39.39,0,0,0,.13.31.43.43,0,0,0,.29.12.47.47,0,0,0,.3-.12.43.43,0,0,0,.12-.31.46.46,0,0,0-.12-.3A.44.44,0,0,0,22.06,26.75Z"/><path d="M24.81,13.11a.36.36,0,0,0-.12.28.41.41,0,0,0,.43.43.42.42,0,0,0,.3-.12.48.48,0,0,0,.12-.31.4.4,0,0,0-.12-.28A.43.43,0,0,0,24.81,13.11Z"/><path d="M25.12,22.08a.43.43,0,0,0-.43.43.43.43,0,0,0,.85,0A.42.42,0,0,0,25.12,22.08Z"/><circle cx="25.12" cy="17.95" r="0.43"/><circle cx="25.12" cy="20.23" r="0.43"/><path d="M25.12,15.26a.42.42,0,1,0,.42.41A.42.42,0,0,0,25.12,15.26Z"/><path d="M25.12,24.36a.42.42,0,1,0,0,.84.42.42,0,1,0,0-.84Z"/><path d="M24.81,26.75a.46.46,0,0,0-.12.3.43.43,0,0,0,.12.31.48.48,0,0,0,.31.12.47.47,0,0,0,.3-.12.43.43,0,0,0,0-.61A.46.46,0,0,0,24.81,26.75Z"/></g><text x="0" y="47" fill="#000000" font-size="5px" font-weight="bold" font-family="'Helvetica Neue', Helvetica, Arial-Unicode, Arial, Sans-serif">Created by muhammad</text><text x="0" y="52" fill="#000000" font-size="5px" font-weight="bold" font-family="'Helvetica Neue', Helvetica, Arial-Unicode, Arial, Sans-serif">from the Noun Project</text></svg>