<svg xmlns="http://www.w3.org/2000/svg" data-name="Layer 1" viewBox="0 0 100 125" x="0px" y="0px"><title>Artboard 3-1</title><path d="M42,48.71a11.72,11.72,0,0,1,1,.73,4.86,4.86,0,0,0,3.56,1.2,12.45,12.45,0,0,0,3-.37A5.57,5.57,0,0,0,59.78,50a6.65,6.65,0,0,0,6-6.62,6.55,6.55,0,0,0-1-3.51,6.55,6.55,0,0,0,1-3.51,6.62,6.62,0,0,0-4.12-6.15,7.7,7.7,0,0,0,1-3.7,7.61,7.61,0,0,0-8.2-7.6A7.63,7.63,0,0,0,44.41,12.7a12.2,12.2,0,0,0-18.8,1.66,9.32,9.32,0,0,0-1.15-.07,12.19,12.19,0,0,0-12,14.55A6.68,6.68,0,0,0,8.2,35.05a6.42,6.42,0,0,0,.19,1.57,6.65,6.65,0,0,0,3.1,12,6.65,6.65,0,0,0,11,2.85,12.52,12.52,0,0,0,2,.17,8.71,8.71,0,0,0,5.31-1.76V68.66a37.16,37.16,0,0,1-.86,8l-1.53,4a1,1,0,0,0,.57,1.3,1.13,1.13,0,0,0,.36.06,1,1,0,0,0,.94-.64l1.55-4,.05-.14a39.36,39.36,0,0,0,.92-8.49V43.24A5.15,5.15,0,0,0,36,42.71a5.8,5.8,0,0,0,3.72,2.66V66.46a59.33,59.33,0,0,0,1.39,12.8l1.2,2.19a1,1,0,0,0,1.36.37A1,1,0,0,0,44,80.46l-1-1.78a57.17,57.17,0,0,1-1.31-12.22v-18A1.11,1.11,0,0,0,42,48.71Zm-1.29-5.24a4,4,0,0,1-3.47-2.65l-.56-1.32-1,1a3.23,3.23,0,0,1-4.25.34l-1.58-1.13V48a1,1,0,0,0-.84.1c-1.62,1-2.52,1.59-4.47,1.59a10,10,0,0,1-2.16-.24l-.57-.12-.39.44a4.64,4.64,0,0,1-8.07-2.23l-.16-.82h-.84a4.65,4.65,0,0,1-2.22-8.74l.76-.41-.31-.82a4.72,4.72,0,0,1-.3-1.65,4.65,4.65,0,0,1,3.67-4.54l1-.22-.28-1a10,10,0,0,1-.39-2.74A10.24,10.24,0,0,1,24.46,16.29a9.51,9.51,0,0,1,1.5.13l.65.09L27,16a10.19,10.19,0,0,1,16.43-1.4l.5.56.68-.31a5.43,5.43,0,0,1,2.34-.52,5.63,5.63,0,0,1,5.62,5.65l0,1.43,1.26-.3a5.61,5.61,0,0,1,5.58,9.09L58.18,31.5l1.75.29a4.64,4.64,0,0,1,2.89,7.47l-.5.62.5.62a4.6,4.6,0,0,1,1,2.89A4.66,4.66,0,0,1,59.18,48h0l-.91,0-.19.79a3.56,3.56,0,0,1-6.94,0l-.26-1.06-1,.35a10.31,10.31,0,0,1-3.28.55,2.89,2.89,0,0,1-2.34-.79c-.32-.24-.68-.52-1.16-.83a1,1,0,0,0-1.37.29V43.47Z"/><path d="M91.12,73.56a3.26,3.26,0,0,0,3.26-3.25V63.39a3.26,3.26,0,0,0-3.26-3.26H52.4a3.26,3.26,0,0,0-3.25,3.26v6.92a3.26,3.26,0,0,0,3.25,3.25h2.75V77H52.64a3.49,3.49,0,1,0,0,7h2.51v6a1,1,0,0,0,2,0V84H86.38v6a1,1,0,0,0,2,0V84h2.51a3.49,3.49,0,0,0,0-7H88.38V73.56Zm-40-3.25V63.39a1.26,1.26,0,0,1,1.25-1.26H91.12a1.27,1.27,0,0,1,1.26,1.26v6.92a1.26,1.26,0,0,1-1.26,1.25H52.4A1.25,1.25,0,0,1,51.15,70.31ZM92.38,80.46A1.49,1.49,0,0,1,90.89,82H52.64a1.49,1.49,0,1,1,0-3H90.89A1.49,1.49,0,0,1,92.38,80.46Zm-6-3.49H57.15V73.56H86.38Z"/><path d="M57.78,65.85H56.26a1,1,0,1,0,0,2h1.52a1,1,0,0,0,0-2Z"/><path d="M87.78,65.85H86.26a1,1,0,0,0,0,2h1.52a1,1,0,0,0,0-2Z"/><text x="0" y="115" fill="#000000" font-size="5px" font-weight="bold" font-family="'Helvetica Neue', Helvetica, Arial-Unicode, Arial, Sans-serif">Created by frederick allen</text><text x="0" y="120" fill="#000000" font-size="5px" font-weight="bold" font-family="'Helvetica Neue', Helvetica, Arial-Unicode, Arial, Sans-serif">from the Noun Project</text></svg>