<svg xmlns="http://www.w3.org/2000/svg" data-name="Layer 2" viewBox="0 0 100 125" x="0px" y="0px"><title>the noun project</title><path d="M87.68,13.21A32,32,0,0,0,37.35,51.85l-4.81,4.81L28.92,53,6.5,75.46A12.12,12.12,0,0,0,23.64,92.61L46.06,70.19l-3.62-3.63,4.41-4.41A32,32,0,0,0,87.68,13.21Zm-47.27,57L20.81,89.78A8.12,8.12,0,0,1,9.32,78.29L28.92,58.7l.79.79-.1.1,9.9,9.9.1-.1Zm-.8-6.46-4.24-4.24,4.14-4.14.92.92c.63.75,1.29,1.49,2,2.2.41.41.83.8,1.26,1.19Zm45.25-8.09a28.05,28.05,0,0,1-37.5,1.9l-4-4a28,28,0,1,1,41.5,2.1Z"/><path d="M82.38,18.52a24.48,24.48,0,1,0,7.18,17.32A24.34,24.34,0,0,0,82.38,18.52ZM79.55,50.34a20.5,20.5,0,1,1,6-14.5A20.36,20.36,0,0,1,79.55,50.34Z"/><text x="0" y="115" fill="#000000" font-size="5px" font-weight="bold" font-family="'Helvetica Neue', Helvetica, Arial-Unicode, Arial, Sans-serif">Created by dedi prasetyo</text><text x="0" y="120" fill="#000000" font-size="5px" font-weight="bold" font-family="'Helvetica Neue', Helvetica, Arial-Unicode, Arial, Sans-serif">from the Noun Project</text></svg>