<svg xmlns="http://www.w3.org/2000/svg" xmlns:xlink="http://www.w3.org/1999/xlink" viewBox="0 0 72 112.5" version="1.1" x="0px" y="0px"><title>bag-1</title><desc>Created with Sketch.</desc><g stroke="none" stroke-width="1" fill="none" fill-rule="evenodd"><g transform="translate(-338.000000, -60.000000)" fill="#000000" fill-rule="nonzero"><g transform="translate(338.000000, 60.000000)"><path d="M27,33 C27,33.8295 27.672,34.5 28.5,34.5 C29.328,34.5 30,33.8295 30,33 C30,29.691 27.309,27 24,27 C20.691,27 18,29.691 18,33 C18,33.8295 18.672,34.5 19.5,34.5 C20.328,34.5 21,33.8295 21,33 C21,31.3455 22.3455,30 24,30 C25.6545,30 27,31.3455 27,33 Z"/><path d="M48,27 C44.691,27 42,29.691 42,33 C42,33.8295 42.672,34.5 43.5,34.5 C44.328,34.5 45,33.8295 45,33 C45,31.3455 46.3455,30 48,30 C49.6545,30 51,31.3455 51,33 C51,33.8295 51.672,34.5 52.5,34.5 C53.328,34.5 54,33.8295 54,33 C54,29.691 51.309,27 48,27 Z"/><path d="M70.5,21 L70.5,0 L1.5,0 L1.5,21 L0,21 L0,90 L72,90 L72,21 L70.5,21 Z M66.75,21 L58.98,10.641 L66.621,3 L67.5,3 L67.5,21 L66.75,21 Z M16.5,21 L16.5,10.5 C16.5,10.464 16.482,10.431 16.479,10.395 C16.4715,10.299 16.449,10.209 16.425,10.1145 C16.4085,10.0515 16.41,9.987 16.3845,9.927 C16.371,9.894 16.344,9.8685 16.329,9.8355 C16.2885,9.753 16.2315,9.6825 16.1745,9.6075 C16.1325,9.5535 16.1085,9.486 16.059,9.438 L9.621,3 L62.379,3 L55.941,9.438 C55.893,9.486 55.8675,9.5535 55.8255,9.6075 C55.7685,9.6825 55.713,9.753 55.6725,9.8355 C55.656,9.8685 55.6305,9.8925 55.6155,9.927 C55.59,9.987 55.5915,10.053 55.575,10.1145 C55.5495,10.209 55.527,10.2975 55.521,10.395 C55.518,10.431 55.5,10.464 55.5,10.5 L55.5,21 L16.5,21 Z M9,21 L13.5,14.9985 L13.5,21 L9,21 Z M58.5,14.9985 L63,21 L58.5,21 L58.5,14.9985 Z M4.5,3 L5.379,3 L13.02,10.641 L5.25,21 L4.5,21 L4.5,3 Z M69,87 L3,87 L3,24 L69,24 L69,87 Z"/><path d="M48,31.5 C47.172,31.5 46.5,32.1705 46.5,33 L46.5,42 C46.5,47.7885 41.79,52.5 36,52.5 C30.21,52.5 25.5,47.7885 25.5,42 L25.5,33 C25.5,32.1705 24.828,31.5 24,31.5 C23.172,31.5 22.5,32.1705 22.5,33 L22.5,42 C22.5,49.4445 28.557,55.5 36,55.5 C43.443,55.5 49.5,49.4445 49.5,42 L49.5,33 C49.5,32.1705 48.828,31.5 48,31.5 Z"/></g></g></g><text x="0" y="105" fill="#000000" font-size="5px" font-weight="bold" font-family="'Helvetica Neue', Helvetica, Arial-Unicode, Arial, Sans-serif">Created by Samarth Gupta</text><text x="0" y="110" fill="#000000" font-size="5px" font-weight="bold" font-family="'Helvetica Neue', Helvetica, Arial-Unicode, Arial, Sans-serif">from the Noun Project</text></svg>